<?xml version="1.0" encoding="iso-8859-1"?>
<!-- Uploaded to: SVG Repo, www.svgrepo.com, Generator: SVG Repo Mixer Tools -->
<svg version="1.1" id="Layer_1" xmlns="http://www.w3.org/2000/svg" xmlns:xlink="http://www.w3.org/1999/xlink" 
	 viewBox="0 0 512 512" xml:space="preserve">
<circle style="fill:#FFD15D;" cx="256" cy="256" r="256"/>
<path style="fill:#F9B54C;" d="M437.019,437.019c45.14-45.14,69.892-102.946,74.269-161.978l-79.45-80.024l-12.705,69.732
	l-69.356-69.732l-17.308,54.858l-41.048-41.372l-40.61,47.095l-49.714-49.714l-36.459,39.134l-49.998-50l-10.652,55.956
	l-20.378,77.081L267.85,511.722C329.363,508.89,390.047,483.992,437.019,437.019z"/>
<path style="fill:#D83E20;" d="M128.452,238.809c0-24.186,19.606-43.792,43.792-43.792s43.792,19.606,43.792,43.792
	c0-24.186,19.606-43.792,43.792-43.792s43.792,19.606,43.792,43.792c0,41.875-87.585,91.963-87.585,91.963
	S128.452,283.045,128.452,238.809z"/>
<path style="fill:#C1321F;" d="M216.036,238.809c0-24.186,19.606-43.792,43.792-43.792s43.792,19.606,43.792,43.792
	c0,41.875-87.585,91.963-87.585,91.963L216.036,238.809L216.036,238.809z"/>
<g>
	<rect x="83.609" y="195.008" style="fill:#935635;" width="31.03" height="133.034"/>
	<path style="fill:#935635;" d="M375.293,333.624c-31.179,0-56.546-25.367-56.546-56.546v-82.063h31.03v82.063
		c0,14.069,11.447,25.516,25.516,25.516s25.516-11.447,25.516-25.516v-82.063h31.03v82.063
		C431.838,308.257,406.471,333.624,375.293,333.624z"/>
</g>
<g>
	<rect x="99.7" y="195.008" style="fill:#804000;" width="14.939" height="133.034"/>
	<path style="fill:#804000;" d="M400.808,195.017v82.063c0,13.796-11.014,25.043-24.709,25.474v31.051
		c30.806-0.434,55.739-25.617,55.739-56.525v-82.063H400.808z"/>
</g>
</svg>